<svg xmlns="http://www.w3.org/2000/svg" xmlns:xlink="http://www.w3.org/1999/xlink" viewBox="0,0,256,256" width="24px" height="24px" fill-rule="nonzero"><g fill="#d101f3" fill-rule="nonzero" stroke="none" stroke-width="1" stroke-linecap="butt" stroke-linejoin="miter" stroke-miterlimit="10" stroke-dasharray="" stroke-dashoffset="0" font-family="none" font-weight="none" font-size="none" text-anchor="none" style="mix-blend-mode: normal"><g transform="scale(10.66667,10.66667)"><path d="M12,2c-5.511,0 -10,4.489 -10,10c0,5.511 4.489,10 10,10c5.511,0 10,-4.489 10,-10c0,-5.511 -4.489,-10 -10,-10zM8.4668,7.00586c0.07528,0.01303 0.14844,0.04883 0.21094,0.11133l1.75977,1.88281h1.5625h1.60352l1.71875,-1.86914c0.25,-0.25 0.67773,-0.0747 0.67773,0.2793v5.58984c0,2.209 -1.791,4 -4,4c1.70864,0 3.27336,0.61247 4.48828,1.62891c-1.27849,0.86543 -2.82248,1.37109 -4.48828,1.37109c-1.66581,0 -3.20979,-0.50567 -4.48828,-1.37109c1.21492,-1.01644 2.77964,-1.62891 4.48828,-1.62891c-2.209,0 -4,-1.791 -4,-4v-5.60156c0,-0.2655 0.24095,-0.43167 0.4668,-0.39258zM10,11c-0.55228,0 -1,0.44772 -1,1c0,0.55228 0.44772,1 1,1c0.55228,0 1,-0.44772 1,-1c0,-0.55228 -0.44772,-1 -1,-1zM14,11c-0.55228,0 -1,0.44772 -1,1c0,0.55228 0.44772,1 1,1c0.55228,0 1,-0.44772 1,-1c0,-0.55228 -0.44772,-1 -1,-1zM12,13c-0.55228,0 -1,0.22386 -1,0.5c0,0.27614 0.44772,0.5 1,0.5c0.55228,0 1,-0.22386 1,-0.5c0,-0.27614 -0.44772,-0.5 -1,-0.5z"></path></g></g></svg>