<svg width="207" height="187" viewBox="0 0 207 187" fill="none" xmlns="http://www.w3.org/2000/svg">
<g clip-path="url(#clip0_14_1331)">
<path d="M172.871 37.9903C169.449 37.8181 165.959 38.4863 162.797 39.8726L169.954 54.3363L178.607 39.1362C176.767 38.4633 174.83 38.089 172.871 37.9903Z" fill="#3658C1"/>
<path d="M169.959 54.3963C169.97 54.3956 169.981 54.3924 169.99 54.3868C170 54.3813 170.007 54.3737 170.012 54.3647L178.665 39.1647C178.669 39.1572 178.672 39.149 178.672 39.1406C178.673 39.1321 178.671 39.1237 178.668 39.1157C178.665 39.1078 178.66 39.1005 178.653 39.0945C178.647 39.0884 178.639 39.0836 178.63 39.0805C176.821 38.4186 174.884 38.0317 172.874 37.9304C169.471 37.759 165.976 38.4119 162.768 39.8184C162.753 39.8251 162.741 39.837 162.736 39.8517C162.73 39.8663 162.731 39.8825 162.738 39.8968L169.895 54.3606C169.9 54.3718 169.909 54.3813 169.921 54.3877C169.933 54.3941 169.946 54.3971 169.959 54.3963ZM178.515 39.1672L169.958 54.1994L162.883 39.9019C166.056 38.5213 169.507 37.8812 172.868 38.0503C174.839 38.1496 176.738 38.5253 178.515 39.1672Z" fill="#111111"/>
<path d="M169.954 54.3363L171.267 56.2248L179.919 41.0247L178.607 39.1362L169.954 54.3363Z" fill="#111111"/>
<path d="M171.272 56.2848C171.283 56.2841 171.294 56.2809 171.303 56.2754C171.312 56.2698 171.32 56.2622 171.325 56.2532L179.978 41.0531C179.983 41.0438 179.985 41.0333 179.985 41.0227C179.984 41.0122 179.981 41.0019 179.974 40.9929L178.662 39.1045C178.649 39.0863 178.627 39.0755 178.604 39.0762C178.592 39.0764 178.581 39.0794 178.571 39.085C178.561 39.0905 178.554 39.0984 178.549 39.1078L169.896 54.308C169.891 54.3173 169.888 54.3278 169.889 54.3383C169.889 54.3489 169.893 54.3592 169.899 54.3681L171.212 56.2566C171.218 56.2655 171.227 56.2728 171.237 56.2778C171.247 56.2828 171.259 56.2852 171.27 56.2848L171.272 56.2848ZM179.844 41.027L171.261 56.1051L170.03 54.3341L178.613 39.256L179.844 41.027Z" fill="#111111"/>
<path d="M162.797 39.8726C159.468 41.3333 156.502 43.5905 154.368 46.5079C149.989 52.4996 150.252 59.7191 154.369 64.7314L169.954 54.3363L162.797 39.8726Z" fill="#B0C3FF"/>
<path d="M154.374 64.7913C154.386 64.7906 154.398 64.7867 154.408 64.7802L169.993 54.3851C170.005 54.3771 170.014 54.3654 170.018 54.3522C170.021 54.3389 170.02 54.3248 170.014 54.3122L162.857 39.8485C162.853 39.8411 162.848 39.8345 162.841 39.8289C162.835 39.8234 162.827 39.8191 162.819 39.8163C162.811 39.8135 162.802 39.8123 162.793 39.8126C162.785 39.813 162.776 39.815 162.768 39.8184C159.313 41.3345 156.389 43.6359 154.314 46.474C152.188 49.3823 151.083 52.6717 151.117 55.9867C151.15 59.2232 152.257 62.2595 154.317 64.7673C154.323 64.7753 154.332 64.7818 154.342 64.786C154.352 64.7902 154.363 64.792 154.374 64.7913ZM169.873 54.3161L154.382 64.6481C152.364 62.1705 151.281 59.177 151.248 55.9872C151.214 52.6964 152.312 49.4302 154.423 46.5419C156.473 43.7377 159.357 41.4607 162.766 39.9534L169.873 54.3161Z" fill="#111111"/>
<path d="M153.678 63.8187L154.991 65.7071C155.208 66.0195 155.438 66.324 155.681 66.6199L154.369 64.7314C154.126 64.4355 153.895 64.131 153.678 63.8187Z" fill="white"/>
<path d="M155.687 66.6798C155.698 66.6791 155.709 66.6758 155.718 66.6701C155.728 66.6644 155.735 66.6565 155.74 66.6473C155.745 66.6381 155.747 66.6278 155.747 66.6174C155.746 66.607 155.743 66.597 155.736 66.5882L154.424 64.6997C154.181 64.4038 153.951 64.0995 153.734 63.7875L153.733 63.7869C153.729 63.78 153.723 63.774 153.716 63.7693C153.709 63.7645 153.701 63.7611 153.692 63.7592C153.684 63.7572 153.675 63.7569 153.666 63.7582C153.657 63.7595 153.649 63.7623 153.642 63.7665C153.635 63.7708 153.628 63.7763 153.623 63.7829C153.618 63.7894 153.615 63.7968 153.613 63.8046C153.611 63.8125 153.611 63.8205 153.613 63.8284C153.615 63.8363 153.618 63.8438 153.623 63.8505L153.625 63.8527L154.936 65.7389C155.154 66.0525 155.385 66.3583 155.629 66.6556C155.636 66.6637 155.645 66.6702 155.655 66.6744C155.665 66.6786 155.676 66.6805 155.687 66.6798Z" fill="#111111"/>
<path d="M169.954 54.3363L154.369 64.7314C155.677 66.3217 157.372 67.6942 159.432 68.7308C161.777 69.9075 164.385 70.549 167.058 70.6835C169.189 70.7909 171.361 70.576 173.473 70.0534L169.954 54.3363Z" fill="#3658C1"/>
<path d="M169.446 70.7314C170.798 70.65 172.151 70.4429 173.491 70.1114C173.507 70.1074 173.52 70.0981 173.529 70.0853C173.537 70.0724 173.54 70.057 173.537 70.0421L170.018 54.3251C170.016 54.3152 170.011 54.3059 170.004 54.2981C169.997 54.2903 169.988 54.2842 169.978 54.2805C169.967 54.2768 169.956 54.2755 169.945 54.2767C169.934 54.278 169.924 54.2818 169.915 54.2877L154.33 64.6828C154.323 64.6874 154.317 64.6933 154.312 64.7001C154.308 64.7069 154.305 64.7144 154.304 64.7223C154.303 64.7302 154.303 64.7382 154.305 64.7459C154.308 64.7537 154.311 64.7609 154.317 64.7673C155.675 66.418 157.386 67.7692 159.401 68.7834C161.716 69.9449 164.291 70.6045 167.056 70.7436C167.852 70.7835 168.651 70.7794 169.446 70.7314ZM173.396 70.0098C171.298 70.5231 169.167 70.7296 167.061 70.6236C164.316 70.4854 161.76 69.8308 159.463 68.6781C157.484 67.6823 155.802 66.3591 154.461 64.7445L169.911 54.4401L173.396 70.0098Z" fill="#111111"/>
<path d="M169.954 54.3363L173.473 70.0534C176.771 69.2387 179.922 67.6731 182.541 65.409L169.954 54.3363Z" fill="#B0C3FF"/>
<path d="M173.478 70.1133C173.482 70.1131 173.486 70.1124 173.491 70.1114C176.885 69.2729 180.031 67.662 182.586 65.4531C182.592 65.4475 182.597 65.4408 182.601 65.4334C182.604 65.426 182.606 65.4179 182.606 65.4098C182.606 65.4016 182.604 65.3936 182.601 65.386C182.597 65.3785 182.592 65.3717 182.585 65.3661L169.999 54.2933C169.989 54.2845 169.976 54.2787 169.962 54.277C169.948 54.2752 169.934 54.2775 169.922 54.2836C169.91 54.2897 169.9 54.2992 169.895 54.3107C169.889 54.3222 169.887 54.3352 169.89 54.3477L173.409 70.0647C173.412 70.0791 173.421 70.0919 173.433 70.1009C173.446 70.1098 173.462 70.1142 173.478 70.1133ZM182.446 65.408C179.932 67.567 176.849 69.1459 173.523 69.9785L170.06 54.5122L182.446 65.408Z" fill="#111111"/>
<path d="M159.432 68.7308C161.777 69.9075 164.385 70.549 167.058 70.6836C169.189 70.7908 171.361 70.576 173.473 70.0534C176.771 69.2387 179.922 67.6731 182.541 65.4091L183.853 67.2975C181.234 69.5615 178.084 71.1271 174.786 71.9418C172.674 72.4645 170.502 72.6793 168.371 72.572C165.698 72.4374 163.09 71.796 160.745 70.6192C158.685 69.5828 156.99 68.2102 155.681 66.6199L154.369 64.7314C155.677 66.3218 157.372 67.6943 159.432 68.7308Z" fill="url(#paint0_linear_14_1331)"/>
<path d="M170.758 72.6198C172.111 72.5385 173.464 72.3314 174.803 71.9999C178.198 71.1613 181.343 69.5504 183.899 67.3415C183.91 67.332 183.917 67.3193 183.918 67.3055C183.92 67.2916 183.917 67.2776 183.908 67.2658L182.596 65.3773C182.59 65.3698 182.583 65.3635 182.575 65.3587C182.567 65.3539 182.558 65.3508 182.548 65.3497C182.539 65.3485 182.529 65.3493 182.52 65.3519C182.511 65.3546 182.502 65.3591 182.495 65.3651C179.955 67.5608 176.829 69.1619 173.455 69.9954C171.338 70.5193 169.187 70.7306 167.061 70.6236C164.316 70.4854 161.76 69.8308 159.463 68.6781C157.464 67.6724 155.768 66.3324 154.421 64.6957C154.411 64.6832 154.396 64.6748 154.379 64.6722C154.362 64.6696 154.345 64.6731 154.331 64.6818C154.317 64.6905 154.308 64.7038 154.305 64.719C154.301 64.7342 154.305 64.75 154.314 64.7632L155.626 66.6516C156.988 68.3063 158.698 69.6575 160.714 70.6717C163.028 71.8333 165.604 72.4927 168.368 72.6319C169.165 72.6719 169.963 72.6679 170.758 72.6198ZM183.769 67.2872C181.236 69.4655 178.125 71.0546 174.768 71.8838C172.651 72.4077 170.499 72.619 168.374 72.5121C165.629 72.3739 163.072 71.7193 160.775 70.5666C158.777 69.5608 157.08 68.2209 155.734 66.5841L155.032 65.5748C156.259 66.8629 157.725 67.9398 159.401 68.7833L159.401 68.7833C161.716 69.9448 164.291 70.6043 167.056 70.7434C169.195 70.8512 171.36 70.6384 173.491 70.1113C176.86 69.279 179.984 67.6859 182.528 65.5024L183.769 67.2872Z" fill="#111111"/>
</g>
<g clip-path="url(#clip1_14_1331)">
<path d="M154.875 122.984L135.382 144.644L158.287 158.293L177.78 136.632L154.875 122.984Z" fill="#111111"/>
<path d="M158.249 158.361C158.265 158.368 158.284 158.37 158.302 158.366C158.32 158.362 158.337 158.353 158.349 158.339L177.842 136.679C177.849 136.67 177.855 136.661 177.858 136.65C177.861 136.64 177.862 136.63 177.861 136.619C177.86 136.609 177.856 136.599 177.85 136.59C177.844 136.581 177.836 136.574 177.827 136.568L154.922 122.92C154.906 122.91 154.885 122.906 154.865 122.91C154.845 122.913 154.826 122.923 154.813 122.938L135.32 144.598C135.313 144.606 135.307 144.616 135.304 144.626C135.301 144.636 135.3 144.647 135.301 144.657C135.302 144.668 135.306 144.678 135.312 144.686C135.318 144.695 135.326 144.703 135.335 144.708L158.24 158.357C158.243 158.358 158.246 158.36 158.249 158.361ZM177.658 136.652L158.273 158.193L135.504 144.625L154.889 123.084L177.658 136.652Z" fill="#111111"/>
<path d="M135.382 144.644L136.266 146.469L159.17 160.117L158.287 158.293L135.382 144.644Z" fill="#3658C1"/>
<path d="M159.132 160.185C159.147 160.192 159.164 160.194 159.181 160.191C159.198 160.188 159.214 160.181 159.226 160.17C159.239 160.158 159.247 160.144 159.251 160.129C159.254 160.113 159.252 160.097 159.246 160.083L158.362 158.259C158.356 158.247 158.346 158.236 158.334 158.229L135.429 144.58C135.415 144.572 135.397 144.568 135.379 144.569C135.361 144.571 135.344 144.577 135.33 144.588C135.317 144.599 135.307 144.614 135.303 144.63C135.298 144.646 135.3 144.663 135.307 144.678L136.191 146.502C136.197 146.515 136.206 146.525 136.219 146.533L159.123 160.181C159.126 160.183 159.129 160.184 159.132 160.185ZM158.221 158.345L158.979 159.911L136.332 146.416L135.574 144.85L158.221 158.345Z" fill="#111111"/>
<path d="M158.287 158.293L159.17 160.117L178.663 138.457L177.78 136.632L158.287 158.293Z" fill="#B0C3FF"/>
<path d="M159.132 160.185C159.149 160.193 159.167 160.194 159.186 160.19C159.204 160.186 159.221 160.177 159.233 160.163L178.725 138.503C178.735 138.492 178.742 138.478 178.744 138.464C178.747 138.45 178.745 138.436 178.738 138.423L177.855 136.599C177.849 136.587 177.841 136.577 177.83 136.57C177.819 136.563 177.806 136.558 177.792 136.557C177.778 136.556 177.764 136.558 177.751 136.563C177.738 136.568 177.726 136.576 177.717 136.586L158.225 158.246C158.215 158.258 158.208 158.271 158.206 158.285C158.203 158.299 158.205 158.313 158.212 158.326L159.095 160.151C159.103 160.166 159.116 160.178 159.132 160.185ZM178.567 138.448L159.194 159.976L158.383 158.302L177.756 136.773L178.567 138.448Z" fill="#111111"/>
<path d="M177.78 136.632L154.875 122.984C144.955 133.799 140.429 138.733 135.108 143.328L158.012 156.976C163.334 152.381 167.859 147.447 177.78 136.632Z" fill="white"/>
<path d="M157.974 157.044C157.989 157.051 158.005 157.053 158.022 157.05C158.039 157.048 158.054 157.041 158.067 157.03C163.392 152.431 167.92 147.495 177.841 136.679C177.849 136.671 177.855 136.661 177.858 136.651C177.861 136.641 177.862 136.63 177.861 136.62C177.86 136.609 177.856 136.599 177.85 136.59C177.844 136.581 177.836 136.574 177.827 136.568L154.922 122.92C154.906 122.91 154.885 122.907 154.865 122.91C154.845 122.913 154.827 122.923 154.814 122.937C144.897 133.748 140.371 138.682 135.053 143.274C135.044 143.282 135.037 143.292 135.032 143.302C135.027 143.313 135.025 143.325 135.026 143.336C135.026 143.347 135.03 143.358 135.036 143.368C135.042 143.377 135.05 143.386 135.06 143.392L157.965 157.04C157.968 157.042 157.971 157.043 157.974 157.044ZM177.657 136.652C167.813 147.384 163.292 152.309 158.006 156.88L135.24 143.314C140.523 138.743 145.05 133.81 154.888 123.084L177.657 136.652Z" fill="#111111"/>
</g>
<g clip-path="url(#clip2_14_1331)">
<path d="M162.707 60.4324C165.576 61.6696 167.066 65.2692 166.033 68.4734L148.61 122.528C147.577 125.733 144.413 127.325 141.544 126.088L63.7048 92.519C60.8358 91.2817 59.3452 87.6821 60.3781 84.4779L77.8017 30.423C78.8345 27.2188 81.9985 25.6265 84.8675 26.8638L162.707 60.4324Z" fill="#D101F3"/>
<path d="M143.865 126.57C143.072 126.621 142.269 126.482 141.51 126.155L63.6706 92.5865C60.7698 91.3356 59.2574 87.6882 60.2993 84.4558L77.7229 30.4009C78.2753 28.6873 79.4689 27.351 80.9979 26.7346C82.2514 26.2292 83.6378 26.2512 84.9017 26.7962L162.741 60.3647C165.642 61.6157 167.154 65.2631 166.112 68.4954L148.689 122.55C148.136 124.264 146.943 125.6 145.414 126.217C144.913 126.418 144.391 126.536 143.865 126.57ZM82.5604 26.5307C82.0522 26.5635 81.549 26.677 81.066 26.8717C79.5805 27.4705 78.4194 28.773 77.8804 30.445L60.4569 84.5C59.437 87.6641 60.9093 91.231 63.739 92.4513L141.578 126.02C142.798 126.546 144.136 126.567 145.346 126.08C146.831 125.481 147.992 124.178 148.531 122.506L165.955 68.4512C166.975 65.2872 165.502 61.7202 162.673 60.4999L84.8333 26.9314C84.1005 26.6154 83.325 26.4815 82.5604 26.5307Z" fill="#111111"/>
<path d="M161.418 62.4556L84.6977 29.3698C82.5995 28.465 80.2889 29.6304 79.5347 31.9705L62.5639 84.6208C61.8097 86.9608 62.8972 89.5897 64.9953 90.4946L141.715 123.58C143.812 124.485 146.122 123.321 146.876 120.981L163.847 68.3305C164.601 65.9905 163.514 63.3598 161.418 62.4556Z" fill="white"/>
<path d="M143.412 123.953C142.83 123.991 142.239 123.889 141.681 123.648L64.9612 90.5621C62.832 89.6439 61.7213 86.9687 62.4853 84.5987L79.4561 31.9484C79.8615 30.6905 80.7382 29.7094 81.8612 29.2567C82.7828 28.8852 83.8024 28.9013 84.7321 29.3023L161.452 62.388C163.58 63.3059 164.69 65.9816 163.926 68.3526L146.955 121.003C146.55 122.26 145.673 123.241 144.551 123.693C144.183 123.842 143.8 123.928 143.412 123.953ZM83.0134 29.1465C82.6446 29.1703 82.2795 29.2526 81.9292 29.3939C80.8496 29.8291 80.0056 30.7763 79.6135 31.9927L62.6427 84.6429C61.9008 86.9448 62.9715 89.5395 65.0296 90.427L141.749 123.513C142.635 123.895 143.605 123.91 144.483 123.556C145.562 123.121 146.406 122.175 146.797 120.959L163.768 68.3086C164.51 66.0058 163.441 63.4106 161.384 62.5234L84.6636 29.4375C84.1315 29.208 83.5684 29.1108 83.0134 29.1465Z" fill="#111111"/>
<path d="M122.529 47.551C122.044 47.3421 121.51 47.6112 121.336 48.152C121.162 48.6927 121.412 49.3023 121.897 49.5113C122.381 49.7202 122.918 49.45 123.092 48.9093C123.266 48.3685 123.013 47.7599 122.529 47.551Z" fill="#111111"/>
<path d="M122.294 49.6546C122.149 49.664 122.002 49.6387 121.863 49.5787C121.343 49.3548 121.072 48.7048 121.257 48.1297C121.356 47.8232 121.571 47.5834 121.847 47.4721C122.077 47.3794 122.331 47.3834 122.563 47.4833C123.083 47.7076 123.356 48.3572 123.171 48.9312C123.072 49.2378 122.856 49.4777 122.579 49.5894C122.489 49.6261 122.393 49.6481 122.294 49.6546ZM122.145 47.5569C122.067 47.562 121.989 47.5794 121.915 47.6093C121.683 47.7031 121.5 47.9089 121.415 48.1739C121.251 48.6807 121.483 49.2502 121.931 49.4435C122.119 49.5245 122.325 49.5276 122.511 49.4524C122.745 49.3582 122.928 49.1522 123.013 48.8871C123.176 48.3812 122.944 47.8122 122.494 47.6185C122.385 47.5708 122.265 47.5496 122.145 47.5569Z" fill="#111111"/>
<path d="M162.707 60.4323C165.576 61.6696 167.066 65.2691 166.034 68.4733L148.61 122.528C147.822 124.974 145.792 126.481 143.599 126.507L144.997 126.49C147.19 126.464 149.22 124.957 150.008 122.512L167.431 68.4567C168.464 65.2525 166.974 61.653 164.105 60.4157L86.2654 26.8471C85.5862 26.5542 84.8905 26.4199 84.2104 26.4279L82.8125 26.4445C83.4926 26.4364 84.1883 26.5708 84.8674 26.8637L162.707 60.4323Z" fill="url(#paint1_linear_14_1331)"/>
<path d="M145.267 126.555C145.178 126.56 145.089 126.564 144.999 126.565L143.601 126.581C143.591 126.582 143.58 126.58 143.57 126.576C143.56 126.572 143.55 126.567 143.543 126.56C143.535 126.553 143.529 126.545 143.524 126.536C143.52 126.527 143.517 126.517 143.517 126.508C143.517 126.488 143.525 126.469 143.54 126.455C143.555 126.44 143.575 126.432 143.597 126.432C145.834 126.406 147.771 124.864 148.531 122.506L165.955 68.4512C166.975 65.2872 165.502 61.7202 162.673 60.4999L84.8333 26.9314C84.1807 26.6499 83.5015 26.5113 82.8148 26.5195C82.804 26.5196 82.7933 26.5178 82.7832 26.5141C82.7731 26.5105 82.7639 26.5051 82.7561 26.4982C82.7483 26.4914 82.742 26.4832 82.7376 26.4741C82.7332 26.4651 82.7308 26.4554 82.7305 26.4456C82.7302 26.4357 82.732 26.426 82.7359 26.4168C82.7397 26.4077 82.7455 26.3994 82.7529 26.3923C82.7604 26.3853 82.7692 26.3797 82.7791 26.3758C82.7889 26.3719 82.7995 26.3699 82.8103 26.3697L84.2082 26.3531C84.9202 26.3446 85.6238 26.4881 86.2996 26.7795L164.139 60.3481C167.04 61.599 168.552 65.2464 167.51 68.4787L150.087 122.534C149.336 124.861 147.462 126.413 145.267 126.555ZM144.823 126.417L144.995 126.415C147.234 126.389 149.169 124.848 149.929 122.49L167.353 68.4346C168.373 65.2705 166.9 61.7036 164.071 60.4833L86.2311 26.9148C85.5784 26.6333 84.8993 26.4947 84.2126 26.5029L84.0263 26.5051C84.3271 26.5768 84.6202 26.6743 84.9016 26.7962L162.741 60.3647C165.642 61.6157 167.154 65.2631 166.112 68.4954L148.689 122.55C148.05 124.532 146.596 125.952 144.823 126.417Z" fill="#111111"/>
<path d="M142.584 126.013C145.455 127.251 145.837 128.946 143.438 129.801L102.97 144.219C100.571 145.074 96.3022 144.763 93.4316 143.525L15.594 109.957C12.7233 108.719 12.3411 107.024 14.74 106.169L55.2083 91.751C57.6071 90.8963 61.8762 91.2069 64.7469 92.4448L142.584 126.013Z" fill="#D101F3"/>
<path d="M100.538 144.745C98.2365 144.893 95.4545 144.48 93.3975 143.593L15.5598 110.025C13.9649 109.337 13.0618 108.473 13.0821 107.653C13.0977 107.02 13.6755 106.468 14.7092 106.099L55.1775 91.6811C57.59 90.8216 61.8981 91.1338 64.781 92.3772L142.619 125.945C144.214 126.633 145.117 127.497 145.096 128.316C145.081 128.95 144.503 129.502 143.469 129.87L103.001 144.289C102.31 144.535 101.463 144.685 100.538 144.745ZM57.6597 91.3728C56.7506 91.4313 55.9184 91.5788 55.2391 91.8208L14.7707 106.239C13.8016 106.584 13.2601 107.089 13.2461 107.659C13.2274 108.416 14.0957 109.229 15.6281 109.89L93.4658 143.457C96.3134 144.685 100.563 144.996 102.939 144.149L143.408 129.731C144.377 129.386 144.918 128.881 144.932 128.311C144.951 127.554 144.083 126.741 142.55 126.08L64.7126 92.5124C62.6792 91.6355 59.9304 91.2266 57.6597 91.3728Z" fill="#111111"/>
<path d="M132.91 125.028L66.327 96.3141C65.4432 95.933 64.1274 95.8372 63.3888 96.1004L42.1454 103.669C41.4069 103.932 41.526 104.454 42.4098 104.835L108.992 133.55C109.876 133.931 111.189 134.026 111.928 133.763L133.171 126.194C133.91 125.931 133.793 125.409 132.91 125.028Z" fill="white"/>
<path d="M111.186 133.976C110.467 134.022 109.599 133.894 108.958 133.617L42.3754 104.903C41.8623 104.682 41.5719 104.398 41.5787 104.124C41.5841 103.907 41.7744 103.721 42.1145 103.599L63.3579 96.0307C64.1135 95.7615 65.4607 95.8584 66.3611 96.2466L132.944 124.961C133.456 125.181 133.745 125.465 133.739 125.739C133.733 125.956 133.543 126.143 133.202 126.264L111.958 133.833C111.741 133.91 111.476 133.957 111.186 133.976ZM64.1506 96.035C63.876 96.0526 63.6246 96.0972 63.4195 96.1702L42.176 103.739C41.9003 103.837 41.7465 103.976 41.7427 104.129C41.7376 104.338 41.9997 104.576 42.4438 104.768L109.026 133.482C109.89 133.855 111.178 133.949 111.897 133.693L133.14 126.125C133.417 126.026 133.571 125.887 133.575 125.733C133.58 125.525 133.318 125.287 132.875 125.096L66.2927 96.3817C65.6745 96.1151 64.8394 95.9906 64.1506 96.035Z" fill="#111111"/>
<path d="M85.7968 124.93L62.0886 114.706C61.0674 114.266 59.5472 114.155 58.6925 114.46L46.4028 118.838C45.5495 119.142 45.6856 119.746 46.7068 120.187L70.4149 130.411C71.4362 130.851 72.9564 130.962 73.8098 130.658L86.0994 126.279C86.9541 125.975 86.8181 125.371 85.7968 124.93Z" fill="white"/>
<path d="M72.9505 130.892C72.1213 130.946 71.1203 130.797 70.3807 130.478L46.6726 120.254C46.0851 120.001 45.7526 119.677 45.7603 119.365C45.7663 119.119 45.9836 118.907 46.3721 118.768L58.6617 114.39C59.5327 114.08 61.0853 114.191 62.1229 114.638L85.831 124.863C86.4184 125.116 86.7509 125.44 86.7431 125.752C86.737 125.998 86.5194 126.21 86.1302 126.349L73.8405 130.727C73.5907 130.816 73.2845 130.871 72.9505 130.892ZM59.5727 114.372C59.2536 114.393 58.9616 114.445 58.7233 114.53L46.4337 118.908C46.1097 119.024 45.9288 119.188 45.9244 119.37C45.9183 119.616 46.2236 119.896 46.741 120.119L70.4492 130.343C71.4512 130.775 72.945 130.885 73.7791 130.588L86.0687 126.209C86.3933 126.094 86.5746 125.929 86.5791 125.747C86.5852 125.501 86.2799 125.221 85.7626 124.998L62.0545 114.774C61.3386 114.465 60.3711 114.321 59.5727 114.372Z" fill="#111111"/>
<path d="M143.439 129.801L102.97 144.219C100.571 145.074 96.3023 144.763 93.4317 143.525L15.594 109.957C13.892 109.223 13.0648 108.329 13.1732 107.544L12.903 109.5C12.7946 110.285 13.6219 111.18 15.3238 111.914L93.1615 145.481C96.0321 146.719 100.301 147.03 102.7 146.175L143.168 131.757C144.145 131.409 144.661 130.922 144.735 130.383L145.005 128.426C144.931 128.965 144.415 129.453 143.439 129.801Z" fill="url(#paint2_linear_14_1331)"/>
<path d="M100.268 146.701C97.9662 146.849 95.184 146.436 93.1272 145.549L15.2896 111.981C13.6029 111.254 12.7034 110.346 12.8216 109.49L13.0918 107.533C13.0946 107.514 13.1058 107.496 13.123 107.484C13.1401 107.472 13.1618 107.467 13.1833 107.47C13.2048 107.473 13.2244 107.483 13.2377 107.499C13.2511 107.515 13.2571 107.534 13.2546 107.554C13.1475 108.329 14.0348 109.203 15.6281 109.89L93.4658 143.457C96.3133 144.686 100.563 144.996 102.939 144.149L143.408 129.731C144.326 129.404 144.85 128.949 144.924 128.416C144.925 128.406 144.929 128.397 144.934 128.388C144.939 128.38 144.946 128.372 144.955 128.367C144.963 128.361 144.973 128.356 144.983 128.354C144.994 128.351 145.005 128.351 145.015 128.352C145.026 128.353 145.036 128.357 145.046 128.362C145.055 128.367 145.063 128.373 145.07 128.381C145.077 128.389 145.081 128.398 145.084 128.408C145.087 128.417 145.088 128.427 145.087 128.437C145.086 128.438 145.086 128.44 145.086 128.442L144.816 130.393C144.735 130.983 144.176 131.479 143.199 131.827L102.731 146.245C102.039 146.491 101.193 146.641 100.268 146.701ZM13.1735 108.141L12.9844 109.51C12.8774 110.286 13.7647 111.159 15.358 111.846L93.1957 145.414C96.0431 146.642 100.293 146.952 102.669 146.105L143.138 131.687C144.056 131.36 144.58 130.905 144.654 130.372L144.843 129C144.58 129.345 144.116 129.64 143.469 129.87L103.001 144.289C100.589 145.148 96.2805 144.836 93.3975 143.593L15.5598 110.025C14.2686 109.468 13.4387 108.805 13.1735 108.141Z" fill="#111111"/>
</g>
<g clip-path="url(#clip3_14_1331)">
<path d="M76.9086 66.8722L73.4097 65.3617L72.0722 69.2566L75.5712 70.767L76.9086 66.8722Z" fill="#3658C1"/>
<path d="M75.5712 70.8419C75.5588 70.8419 75.5466 70.8394 75.5355 70.8345L72.0366 69.3241C72.0186 69.3163 72.0044 69.303 71.9964 69.2865C71.9884 69.2701 71.9873 69.2516 71.9932 69.2344L73.3306 65.3395C73.3341 65.3293 73.34 65.3198 73.348 65.3118C73.3559 65.3038 73.3656 65.2975 73.3765 65.2932C73.3874 65.2889 73.3992 65.2867 73.4111 65.2869C73.4229 65.2871 73.4346 65.2896 73.4454 65.2942L76.9443 66.8047C76.9622 66.8124 76.9765 66.8257 76.9845 66.8422C76.9924 66.8586 76.9936 66.8771 76.9877 66.8943L75.6503 70.7892C75.645 70.8044 75.6345 70.8178 75.6203 70.8273C75.6061 70.8367 75.5889 70.8419 75.5712 70.8419ZM72.1725 69.2169L75.5205 70.6621L76.8083 66.9117L73.4604 65.4665L72.1725 69.2169Z" fill="#111111"/>
<path d="M74.0753 75.1233L70.5763 73.6129L69.2389 77.5078L72.7378 79.0182L74.0753 75.1233Z" fill="#B0C3FF"/>
<path d="M72.7379 79.093C72.7255 79.0931 72.7133 79.0906 72.7022 79.0857L69.2033 77.5753C69.1853 77.5675 69.1711 77.5542 69.1631 77.5377C69.1551 77.5213 69.154 77.5028 69.1599 77.4856L70.4973 73.5907C70.5008 73.5805 70.5068 73.571 70.5147 73.563C70.5226 73.555 70.5323 73.5487 70.5432 73.5444C70.5541 73.5401 70.5659 73.5379 70.5778 73.5381C70.5897 73.5383 70.6014 73.5408 70.6121 73.5454L74.111 75.0558C74.1289 75.0636 74.1432 75.0769 74.1512 75.0934C74.1591 75.1098 74.1603 75.1283 74.1544 75.1455L72.817 79.0404C72.8117 79.0557 72.8012 79.069 72.787 79.0785C72.7728 79.0879 72.7556 79.093 72.7379 79.093ZM69.3392 77.4681L72.6871 78.9133L73.975 75.1628L70.627 73.7177L69.3392 77.4681Z" fill="#111111"/>
<path d="M71.242 83.3745L67.743 81.8641L66.4056 85.7588L69.9045 87.2693L71.242 83.3745Z" fill="white"/>
<path d="M69.9046 87.3441C69.8923 87.3441 69.8801 87.3416 69.8689 87.3367L66.3699 85.8264C66.352 85.8186 66.3377 85.8053 66.3298 85.7888C66.3218 85.7724 66.3206 85.7539 66.3265 85.7367L67.6639 81.8418C67.6675 81.8316 67.6734 81.8221 67.6813 81.8141C67.6892 81.8061 67.699 81.7998 67.7099 81.7955C67.7208 81.7911 67.7325 81.789 67.7444 81.7892C67.7563 81.7894 67.768 81.7919 67.7787 81.7965L71.2777 83.3069C71.2957 83.3147 71.3099 83.328 71.3179 83.3445C71.3259 83.3609 71.327 83.3794 71.3211 83.3966L69.9837 87.2914C69.9785 87.3067 69.968 87.32 69.9537 87.3295C69.9395 87.339 69.9223 87.3441 69.9046 87.3441ZM66.5059 85.7193L69.8539 87.1644L71.1417 83.4141L67.7937 81.9689L66.5059 85.7193Z" fill="#111111"/>
<path d="M98.9999 42.9105C96.2269 41.7134 93.2989 41.79 90.7318 42.8812L91.9469 46.4012C93.7622 45.6304 95.8317 45.5771 97.7934 46.4239C99.7534 47.27 101.257 48.8657 102.142 50.8024L105.149 49.1049C103.897 46.3652 101.771 44.1067 98.9999 42.9105Z" fill="white"/>
<path d="M102.142 50.8773C102.126 50.8773 102.11 50.8729 102.096 50.8647C102.083 50.8564 102.072 50.8448 102.066 50.8311C101.155 48.8386 99.6248 47.2975 97.7577 46.4915C95.894 45.687 93.8428 45.679 91.9822 46.469C91.9715 46.4736 91.9598 46.476 91.948 46.4761C91.9362 46.4762 91.9245 46.4741 91.9136 46.4698C91.9028 46.4655 91.8931 46.4591 91.8853 46.4512C91.8774 46.4432 91.8715 46.4338 91.8679 46.4236L90.6528 42.9036C90.6468 42.8864 90.648 42.8678 90.6561 42.8512C90.6641 42.8347 90.6785 42.8213 90.6966 42.8136C93.3839 41.6712 96.3455 41.6817 99.0357 42.843C101.721 44.0021 103.919 46.2158 105.226 49.0765C105.233 49.0928 105.234 49.111 105.228 49.1279C105.222 49.1447 105.21 49.1591 105.193 49.1684L102.186 50.866C102.173 50.8734 102.158 50.8773 102.142 50.8773ZM94.8407 45.7323C95.8528 45.7323 96.8653 45.9404 97.8292 46.3565C99.7076 47.1674 101.25 48.7051 102.181 50.6924L105.046 49.0751C103.751 46.277 101.594 44.1132 98.9642 42.978C96.3415 41.8458 93.4565 41.8263 90.8324 42.9214L91.9979 46.2976C92.9162 45.9207 93.8781 45.7323 94.8407 45.7323Z" fill="#111111"/>
<path d="M90.7318 42.8812C87.7904 44.1314 85.3241 46.7156 84.1101 50.251C82.3442 55.3937 83.7463 61.0325 87.2452 64.4994L89.4826 61.6885C87.0083 59.238 86.0165 55.2487 87.2649 51.613C88.1231 49.1137 89.8667 47.2858 91.9469 46.4012L90.7318 42.8812Z" fill="#B0C3FF"/>
<path d="M87.2453 64.5743C87.2221 64.5743 87.1998 64.5654 87.1841 64.5499C85.4329 62.8147 84.2012 60.5562 83.6223 58.0187C83.0305 55.4247 83.1718 52.7311 84.0311 50.2289C85.202 46.819 87.6315 44.1163 90.6966 42.8136C90.7073 42.809 90.719 42.8066 90.7308 42.8065C90.7426 42.8064 90.7543 42.8085 90.7652 42.8128C90.776 42.8171 90.7857 42.8235 90.7936 42.8314C90.8014 42.8394 90.8074 42.8488 90.8109 42.859L92.026 46.3789C92.032 46.3962 92.0308 46.4148 92.0228 46.4314C92.0147 46.4479 92.0003 46.4613 91.9822 46.469C89.8508 47.3752 88.1602 49.2583 87.3441 51.6351C86.145 55.1274 87.0289 59.1472 89.5438 61.6381C89.5566 61.6508 89.5642 61.6671 89.5653 61.6842C89.5664 61.7014 89.5609 61.7183 89.5498 61.7322L87.3126 64.5431C87.3049 64.5528 87.2948 64.5606 87.2831 64.566C87.2714 64.5714 87.2584 64.5743 87.2453 64.5743ZM90.6812 42.9859C87.6984 44.2845 85.3354 46.9353 84.1893 50.2732C83.3383 52.7513 83.1983 55.4193 83.7846 57.9886C84.3499 60.4664 85.5432 62.6744 87.2379 64.3806L89.3763 61.694C86.8578 59.162 85.9771 55.1111 87.1859 51.5909C88.0075 49.1982 89.7039 47.2962 91.8466 46.3617L90.6812 42.9859Z" fill="#111111"/>
<path d="M105.149 49.105L102.142 50.8025C103.156 53.0228 103.357 55.6898 102.498 58.1891C100.89 62.872 96.1763 65.196 91.9709 63.3807C91.0302 62.9746 90.1946 62.394 89.4827 61.6886L87.2453 64.4995C88.2535 65.4982 89.4342 66.318 90.765 66.8924C96.7141 69.4606 103.379 66.1731 105.653 59.551C106.867 56.0155 106.583 52.2441 105.149 49.105Z" fill="#3658C1"/>
<path d="M94.9395 67.8375C93.5119 67.8375 92.0836 67.5446 90.7293 66.9599C89.4213 66.3952 88.2285 65.5844 87.1842 64.55C87.1714 64.5373 87.1638 64.521 87.1627 64.5039C87.1616 64.4867 87.167 64.4698 87.1781 64.4558L89.4154 61.6449C89.4226 61.6359 89.432 61.6285 89.4428 61.6231C89.4536 61.6178 89.4656 61.6147 89.4779 61.6141C89.4902 61.6134 89.5025 61.6152 89.5139 61.6194C89.5253 61.6236 89.5355 61.63 89.5439 61.6382C90.27 62.3575 91.0985 62.9211 92.0066 63.3131C93.8042 64.0892 95.7904 64.1231 97.5995 63.4084C99.8198 62.5315 101.577 60.621 102.419 58.1669C103.237 55.7863 103.108 53.1125 102.066 50.831C102.058 50.8147 102.058 50.7965 102.064 50.7797C102.07 50.7628 102.082 50.7484 102.099 50.7391L105.105 49.0416C105.115 49.0358 105.127 49.0322 105.139 49.0308C105.151 49.0295 105.163 49.0305 105.174 49.0339C105.186 49.0372 105.196 49.0427 105.205 49.05C105.214 49.0574 105.221 49.0664 105.226 49.0764C106.717 52.3411 106.902 56.167 105.732 59.5731C104.523 63.0941 101.999 65.8367 98.8057 67.0977C97.5563 67.5912 96.2481 67.8375 94.9395 67.8375ZM87.3519 64.4938C88.3709 65.4926 89.5309 66.2767 90.8007 66.8248C93.3525 67.9264 96.1718 67.9746 98.7394 66.9605C101.888 65.7169 104.379 63.0082 105.574 59.5287C106.723 56.1838 106.553 52.4303 105.11 49.2154L102.246 50.8324C103.278 53.1327 103.399 55.8181 102.578 58.211C101.721 60.7067 99.9303 62.6511 97.6659 63.5454C95.8121 64.2776 93.7769 64.2429 91.9353 63.448C91.0366 63.0599 90.2146 62.5081 89.4907 61.8066L87.3519 64.4938Z" fill="#111111"/>
<path d="M143.99 63.7628L126.544 56.2317C126.3 56.1263 126.027 56.2596 125.933 56.5314L125.352 58.2244C125.259 58.4961 125.381 58.8026 125.625 58.9079L143.071 66.4391C143.315 66.5446 143.59 66.4094 143.683 66.1375L144.264 64.4446C144.357 64.1728 144.234 63.8683 143.99 63.7628Z" fill="#3658C1"/>
<path d="M143.242 66.5497C143.171 66.5496 143.1 66.5348 143.036 66.5066L125.59 58.9754C125.31 58.8548 125.168 58.5079 125.273 58.2022L125.854 56.5093C125.911 56.3455 126.03 56.2172 126.181 56.1574C126.31 56.1064 126.452 56.109 126.58 56.1642L144.026 63.6954C144.306 63.816 144.448 64.162 144.343 64.4668L143.762 66.1597C143.705 66.3242 143.586 66.453 143.433 66.5132C143.373 66.5372 143.308 66.5496 143.242 66.5497ZM126.372 56.2703C126.33 56.2703 126.288 56.2783 126.248 56.2944C126.14 56.3369 126.054 56.4313 126.012 56.5536L125.431 58.2465C125.35 58.4841 125.453 58.7505 125.661 58.8404L143.107 66.3715C143.192 66.408 143.282 66.4097 143.367 66.3761C143.475 66.3333 143.561 66.2383 143.604 66.1154L144.185 64.4225C144.266 64.1859 144.163 63.9203 143.954 63.8304L126.509 56.2993C126.466 56.2805 126.419 56.2706 126.372 56.2703Z" fill="#111111"/>
<path d="M155.028 68.5278L146.88 65.0102C146.635 64.9048 146.364 65.0388 146.27 65.3106L145.689 67.0035C145.595 67.2753 145.716 67.581 145.961 67.6864L154.109 71.204C154.353 71.3094 154.627 71.1742 154.721 70.9025L155.302 69.2095C155.395 68.9378 155.272 68.6332 155.028 68.5278Z" fill="#3658C1"/>
<path d="M154.28 71.3146C154.209 71.3145 154.138 71.2997 154.073 71.2715L145.925 67.7539C145.646 67.6336 145.505 67.287 145.61 66.9814L146.191 65.2884C146.247 65.1241 146.367 64.9955 146.518 64.9357C146.646 64.885 146.787 64.8875 146.915 64.9426L155.064 68.4603C155.343 68.581 155.486 68.9271 155.381 69.2317L154.8 70.9247C154.743 71.0891 154.624 71.218 154.471 71.2782C154.411 71.3021 154.346 71.3145 154.28 71.3146ZM146.708 65.0489C146.666 65.0489 146.625 65.0568 146.585 65.0728C146.477 65.1152 146.391 65.21 146.349 65.3327L145.768 67.0257C145.686 67.2632 145.789 67.5293 145.996 67.6189L154.145 71.1366C154.229 71.1732 154.319 71.1749 154.405 71.1411C154.513 71.0983 154.599 71.0033 154.642 70.8805L155.223 69.1875C155.304 68.9509 155.201 68.6853 154.992 68.5954L146.844 65.0777C146.802 65.059 146.755 65.0491 146.708 65.0489ZM157.32 76.7956C157.308 76.7957 157.295 76.7931 157.284 76.7883L119.908 60.6534C119.888 60.6449 119.873 60.6296 119.866 60.6109C119.858 60.5921 119.86 60.5716 119.869 60.5537C119.879 60.5358 119.895 60.522 119.916 60.5154C119.937 60.5087 119.96 60.5098 119.979 60.5184L157.356 76.6532C157.373 76.6605 157.386 76.6729 157.395 76.6882C157.403 76.7034 157.405 76.7208 157.401 76.7374C157.397 76.7539 157.386 76.7687 157.372 76.7793C157.357 76.7899 157.339 76.7957 157.32 76.7956ZM155.575 81.8763C155.563 81.8763 155.551 81.8738 155.54 81.8689L118.164 65.7341C118.144 65.7256 118.129 65.7103 118.121 65.6916C118.114 65.6728 118.115 65.6523 118.125 65.6344C118.134 65.6165 118.151 65.6027 118.172 65.5961C118.192 65.5894 118.215 65.5905 118.235 65.5991L155.611 81.7339C155.628 81.7412 155.642 81.7535 155.65 81.7688C155.658 81.7841 155.66 81.8014 155.656 81.818C155.652 81.8346 155.642 81.8494 155.627 81.86C155.612 81.8706 155.594 81.8763 155.575 81.8763ZM124.787 74.4188C124.774 74.4189 124.762 74.4163 124.751 74.4115L116.419 70.8147C116.399 70.8061 116.384 70.7908 116.377 70.7721C116.369 70.7534 116.37 70.7328 116.38 70.7149C116.389 70.697 116.406 70.6832 116.427 70.6766C116.448 70.67 116.471 70.6711 116.49 70.6796L124.822 74.2765C124.839 74.2838 124.853 74.2961 124.861 74.3114C124.87 74.3266 124.872 74.344 124.868 74.3606C124.863 74.3772 124.853 74.3919 124.838 74.4025C124.824 74.4131 124.805 74.4189 124.787 74.4188ZM153.831 86.9569C153.818 86.9569 153.806 86.9544 153.795 86.9496L128.393 75.9835C128.383 75.9793 128.374 75.9734 128.367 75.9661C128.359 75.9588 128.354 75.9502 128.35 75.941C128.347 75.9317 128.345 75.9219 128.346 75.9121C128.346 75.9022 128.349 75.8926 128.353 75.8838C128.358 75.8749 128.365 75.867 128.373 75.8604C128.381 75.8538 128.39 75.8487 128.401 75.8455C128.411 75.8422 128.422 75.8408 128.433 75.8413C128.443 75.8418 128.454 75.8443 128.464 75.8485L153.866 86.8144C153.883 86.8217 153.897 86.834 153.905 86.8493C153.914 86.8646 153.916 86.882 153.912 86.8986C153.908 86.9152 153.897 86.93 153.883 86.9406C153.868 86.9512 153.85 86.957 153.831 86.9569ZM152.087 92.0356C152.074 92.0356 152.062 92.0331 152.051 92.0282L114.675 75.8934C114.655 75.8848 114.64 75.8695 114.633 75.8508C114.625 75.8321 114.627 75.8115 114.636 75.7936C114.646 75.7757 114.662 75.7619 114.683 75.7553C114.704 75.7487 114.727 75.7498 114.746 75.7583L152.123 91.8932C152.14 91.9005 152.153 91.9128 152.161 91.9281C152.17 91.9434 152.172 91.9608 152.168 91.9773C152.164 91.9939 152.153 92.0087 152.139 92.0193C152.124 92.0299 152.106 92.0356 152.087 92.0356ZM139.406 92.3952C139.394 92.3952 139.382 92.3927 139.37 92.3878L112.93 80.974C112.921 80.9698 112.912 80.9638 112.905 80.9565C112.897 80.9492 112.892 80.9407 112.888 80.9314C112.884 80.9222 112.883 80.9123 112.883 80.9025C112.884 80.8927 112.887 80.8831 112.891 80.8742C112.896 80.8654 112.903 80.8574 112.911 80.8509C112.919 80.8443 112.928 80.8392 112.939 80.8359C112.949 80.8327 112.96 80.8312 112.971 80.8318C112.981 80.8323 112.992 80.8347 113.002 80.839L139.442 92.2529C139.459 92.2602 139.472 92.2725 139.481 92.2878C139.489 92.303 139.491 92.3204 139.487 92.3369C139.483 92.3535 139.472 92.3682 139.458 92.3788C139.443 92.3894 139.425 92.3952 139.406 92.3952ZM150.342 97.1162C150.33 97.1162 150.318 97.1137 150.307 97.1089L142.289 93.6479C142.279 93.6436 142.271 93.6377 142.263 93.6304C142.256 93.6231 142.251 93.6146 142.247 93.6053C142.243 93.596 142.242 93.5862 142.242 93.5764C142.243 93.5666 142.246 93.557 142.25 93.5481C142.255 93.5392 142.261 93.5313 142.27 93.5247C142.278 93.5181 142.287 93.5131 142.297 93.5098C142.308 93.5065 142.318 93.5051 142.329 93.5056C142.34 93.5061 142.351 93.5086 142.361 93.5128L150.378 96.9738C150.395 96.9811 150.409 96.9934 150.417 97.0087C150.425 97.024 150.427 97.0414 150.423 97.058C150.419 97.0745 150.409 97.0893 150.394 97.0999C150.379 97.1105 150.361 97.1163 150.342 97.1162ZM148.74 101.781C148.728 101.781 148.716 101.778 148.705 101.774L111.329 85.6387C111.309 85.6302 111.294 85.6148 111.286 85.5961C111.279 85.5774 111.28 85.5569 111.29 85.5389C111.299 85.521 111.316 85.5073 111.337 85.5006C111.357 85.494 111.38 85.4951 111.4 85.5037L148.776 101.638C148.793 101.646 148.807 101.658 148.815 101.673C148.823 101.689 148.826 101.706 148.821 101.723C148.817 101.739 148.807 101.754 148.792 101.765C148.777 101.775 148.759 101.781 148.74 101.781ZM122.88 96.4508C122.868 96.4509 122.855 96.4483 122.844 96.4435L109.584 90.7193C109.574 90.715 109.566 90.7091 109.558 90.7018C109.551 90.6945 109.545 90.686 109.542 90.6767C109.538 90.6674 109.537 90.6576 109.537 90.6478C109.538 90.638 109.54 90.6284 109.545 90.6195C109.55 90.6106 109.556 90.6027 109.564 90.5961C109.573 90.5895 109.582 90.5845 109.592 90.5812C109.602 90.5779 109.613 90.5765 109.624 90.577C109.635 90.5775 109.646 90.58 109.656 90.5842L122.916 96.3085C122.933 96.3158 122.946 96.3281 122.955 96.3434C122.963 96.3586 122.965 96.376 122.961 96.3926C122.957 96.4092 122.946 96.424 122.932 96.4345C122.917 96.4451 122.899 96.4509 122.88 96.4508ZM146.996 106.861C146.984 106.861 146.971 106.859 146.96 106.854L125.886 97.7566C125.866 97.748 125.851 97.7327 125.844 97.714C125.836 97.6953 125.837 97.6747 125.847 97.6568C125.856 97.6389 125.873 97.6251 125.894 97.6185C125.915 97.6119 125.938 97.613 125.957 97.6215L147.032 106.719C147.049 106.726 147.062 106.739 147.071 106.754C147.079 106.769 147.081 106.787 147.077 106.803C147.073 106.82 147.062 106.835 147.048 106.845C147.033 106.856 147.015 106.862 146.996 106.861ZM138.571 109.058C138.559 109.058 138.547 109.056 138.536 109.051L107.839 95.7999C107.83 95.7957 107.821 95.7897 107.814 95.7824C107.806 95.7751 107.801 95.7666 107.797 95.7573C107.793 95.7481 107.792 95.7382 107.792 95.7284C107.793 95.7186 107.796 95.709 107.8 95.7001C107.805 95.6913 107.812 95.6833 107.82 95.6767C107.828 95.6702 107.837 95.6651 107.848 95.6618C107.858 95.6586 107.869 95.6571 107.88 95.6577C107.89 95.6582 107.901 95.6606 107.911 95.6649L138.607 108.916C138.624 108.923 138.638 108.936 138.646 108.951C138.654 108.966 138.656 108.984 138.652 109C138.648 109.017 138.638 109.031 138.623 109.042C138.608 109.053 138.59 109.058 138.571 109.058ZM88.1197 74.0239C88.1074 74.0239 88.0952 74.0214 88.0841 74.0165L80.3961 70.6978C80.3863 70.6935 80.3775 70.6876 80.3702 70.6803C80.3629 70.673 80.3573 70.6644 80.3537 70.6552C80.3501 70.6459 80.3485 70.6361 80.3491 70.6263C80.3497 70.6165 80.3524 70.6068 80.3571 70.598C80.3617 70.5891 80.3683 70.5812 80.3764 70.5746C80.3845 70.568 80.3939 70.563 80.4042 70.5597C80.4144 70.5564 80.4253 70.555 80.4362 70.5555C80.447 70.556 80.4577 70.5585 80.4675 70.5627L88.1555 73.8815C88.1725 73.8888 88.1862 73.9011 88.1944 73.9164C88.2026 73.9317 88.2048 73.949 88.2007 73.9656C88.1965 73.9822 88.1862 73.997 88.1715 74.0076C88.1568 74.0182 88.1385 74.0239 88.1197 74.0239ZM103.976 80.8687C103.963 80.8688 103.951 80.8663 103.94 80.8614L91.2242 75.3721C91.2044 75.3636 91.1891 75.3482 91.1818 75.3295C91.1745 75.3108 91.1757 75.2902 91.1852 75.2723C91.1946 75.2544 91.2116 75.2407 91.2323 75.234C91.253 75.2274 91.2758 75.2285 91.2956 75.2371L104.012 80.7264C104.029 80.7337 104.042 80.746 104.05 80.7613C104.059 80.7765 104.061 80.7939 104.057 80.8105C104.053 80.8271 104.042 80.8419 104.028 80.8524C104.013 80.863 103.995 80.8688 103.976 80.8687ZM93.5168 85.8281C93.5045 85.8281 93.4923 85.8256 93.4812 85.8208L77.5628 78.9489C77.543 78.9404 77.5278 78.9251 77.5204 78.9064C77.5131 78.8877 77.5143 78.8671 77.5238 78.8492C77.5332 78.8313 77.5502 78.8175 77.5709 78.8109C77.5916 78.8043 77.6144 78.8053 77.6342 78.8139L93.5526 85.6857C93.5696 85.693 93.5833 85.7053 93.5915 85.7206C93.5997 85.7359 93.6019 85.7533 93.5978 85.7698C93.5936 85.7864 93.5833 85.8012 93.5686 85.8118C93.5539 85.8224 93.5356 85.8281 93.5168 85.8281ZM88.3416 93.0682C88.3293 93.0683 88.3171 93.0658 88.306 93.0609L74.7296 87.2001C74.7097 87.1916 74.6945 87.1763 74.6872 87.1576C74.6798 87.1388 74.681 87.1183 74.6905 87.1004C74.7 87.0824 74.7169 87.0687 74.7376 87.0621C74.7583 87.0554 74.7811 87.0565 74.8009 87.0651L88.3774 92.9259C88.3943 92.9332 88.4081 92.9455 88.4163 92.9608C88.4245 92.976 88.4267 92.9934 88.4225 93.01C88.4184 93.0266 88.4081 93.0414 88.3934 93.0519C88.3787 93.0625 88.3604 93.0683 88.3416 93.0682ZM97.7045 97.1102C97.6922 97.1102 97.68 97.1077 97.6689 97.1028L91.4461 94.4165C91.4363 94.4123 91.4275 94.4063 91.4202 94.399C91.4129 94.3917 91.4073 94.3832 91.4037 94.3739C91.4001 94.3646 91.3985 94.3548 91.3991 94.345C91.3996 94.3352 91.4023 94.3256 91.407 94.3167C91.4117 94.3079 91.4183 94.2999 91.4264 94.2933C91.4345 94.2868 91.4439 94.2817 91.4542 94.2784C91.4644 94.2751 91.4753 94.2737 91.4861 94.2742C91.497 94.2748 91.5076 94.2772 91.5175 94.2814L97.7403 96.9678C97.7573 96.9751 97.771 96.9874 97.7792 97.0027C97.7874 97.018 97.7896 97.0353 97.7854 97.0519C97.7813 97.0685 97.771 97.0833 97.7563 97.0939C97.7416 97.1044 97.7233 97.1102 97.7045 97.1102Z" fill="#111111"/>
</g>
<g clip-path="url(#clip4_14_1331)">
<path d="M169.539 121.552L142.11 116.62C137.43 129.291 135.293 135.076 130.942 139.126L158.371 144.058C162.722 140.008 164.859 134.223 169.539 121.552Z" fill="white"/>
<path d="M158.379 144.133C158.398 144.132 158.416 144.124 158.43 144.112C162.794 140.049 164.932 134.261 169.617 121.578C169.621 121.568 169.622 121.557 169.621 121.546C169.62 121.535 169.616 121.525 169.61 121.515C169.604 121.506 169.596 121.498 169.586 121.492C169.576 121.485 169.565 121.481 169.554 121.479L142.125 116.547C142.085 116.54 142.045 116.56 142.032 116.595C137.355 129.257 135.221 135.035 130.883 139.073C130.872 139.083 130.865 139.095 130.862 139.108C130.859 139.121 130.859 139.135 130.864 139.148C130.868 139.161 130.877 139.173 130.888 139.182C130.899 139.191 130.913 139.197 130.927 139.2L158.356 144.132C158.364 144.134 158.372 144.134 158.379 144.133ZM169.431 121.609C164.786 134.185 162.651 139.949 158.342 143.977L131.107 139.08C135.393 135.029 137.534 129.244 142.165 116.706L169.431 121.609Z" fill="#111111"/>
<path d="M158.597 131.455C158.618 131.454 158.637 131.445 158.651 131.43C158.665 131.416 158.672 131.397 158.67 131.377C158.669 131.358 158.66 131.339 158.644 131.326C158.628 131.313 158.608 131.305 158.586 131.305C158.008 131.308 156.824 131.091 156.05 130.261C155.891 130.09 155.756 129.902 155.648 129.701C156 129.493 156.337 129.265 156.655 129.016C157.64 128.246 158.833 126.974 158.927 125.289C159 123.989 158.632 123.165 157.944 123.085C156.98 122.972 155.694 124.38 155.216 126.931C155.014 128.011 155.089 128.92 155.438 129.644C155.13 129.82 154.814 129.977 154.502 130.109C153.888 130.369 153.339 130.507 153.035 130.479C151.713 130.356 151.451 129.718 150.876 128.319C150.835 128.22 150.793 128.116 150.748 128.009C150.614 127.687 150.428 127.496 150.179 127.425C149.648 127.275 148.965 127.728 148.242 128.207C147.658 128.594 147.054 128.994 146.545 129.055C145.725 129.156 145.42 128.907 144.958 128.532C144.9 128.485 144.839 128.436 144.775 128.386C144.759 128.373 144.737 128.367 144.716 128.368C144.694 128.37 144.674 128.379 144.66 128.394C144.646 128.409 144.639 128.428 144.641 128.448C144.643 128.468 144.653 128.486 144.67 128.499C144.733 128.549 144.792 128.597 144.85 128.644C145.329 129.032 145.675 129.312 146.57 129.204C147.119 129.138 147.74 128.727 148.34 128.329C148.999 127.892 149.681 127.441 150.133 127.569C150.33 127.624 150.48 127.785 150.595 128.06C150.638 128.164 150.68 128.267 150.723 128.37C151.286 129.741 151.596 130.496 153.021 130.628C153.513 130.673 154.498 130.355 155.509 129.781C155.622 129.988 155.762 130.181 155.926 130.357C156.739 131.231 157.983 131.459 158.59 131.456L158.597 131.455ZM157.772 123.231C157.824 123.227 157.876 123.228 157.926 123.234C158.148 123.26 158.863 123.483 158.763 125.279C158.672 126.911 157.508 128.15 156.547 128.902C156.24 129.141 155.916 129.362 155.578 129.562C155.251 128.869 155.184 127.998 155.378 126.959C155.807 124.668 156.916 123.297 157.772 123.231ZM156.887 137.138C156.997 137.13 157.113 137.106 157.238 137.065C157.248 137.062 157.257 137.057 157.265 137.05C157.273 137.043 157.279 137.035 157.283 137.027C157.288 137.018 157.29 137.008 157.291 136.998C157.291 136.988 157.289 136.978 157.286 136.969C157.278 136.95 157.262 136.935 157.242 136.927C157.223 136.918 157.2 136.917 157.18 136.924C156.422 137.172 156.006 136.71 155.095 135.698L155.035 135.632C154.203 134.707 153.388 135.18 152.668 135.597C152.213 135.861 151.784 136.11 151.352 136.065C150.824 136.01 150.256 135.698 149.707 135.397C149.021 135.021 148.373 134.666 147.849 134.838C147.498 134.954 147.145 135.221 146.881 135.537C145.883 134.595 144.403 133.545 143.742 133.56C143.066 133.575 142.682 133.814 142.343 134.026C141.922 134.287 141.618 134.477 140.915 134.118C140.906 134.113 140.895 134.11 140.885 134.108C140.874 134.107 140.863 134.108 140.853 134.111C140.842 134.113 140.833 134.118 140.824 134.124C140.816 134.13 140.809 134.137 140.804 134.146C140.799 134.155 140.795 134.164 140.794 134.174C140.793 134.184 140.794 134.194 140.797 134.203C140.8 134.213 140.805 134.221 140.812 134.229C140.819 134.237 140.827 134.243 140.837 134.248C141.629 134.653 142.003 134.42 142.437 134.15C142.758 133.95 143.122 133.723 143.748 133.71C144.261 133.699 145.764 134.671 146.792 135.65C146.605 135.902 146.477 136.176 146.448 136.426C146.409 136.769 146.548 137.046 146.849 137.227C147.15 137.407 147.477 137.408 147.683 137.229C147.887 137.052 147.906 136.764 147.733 136.495C147.581 136.26 147.319 135.963 146.997 135.649C147.245 135.346 147.58 135.088 147.907 134.98C148.358 134.831 148.973 135.169 149.624 135.526C150.189 135.835 150.772 136.155 151.336 136.214C151.825 136.265 152.299 135.991 152.758 135.725C153.484 135.303 154.17 134.905 154.909 135.726L154.969 135.792C155.768 136.681 156.227 137.19 156.887 137.138ZM146.909 135.763C147.191 136.042 147.429 136.318 147.591 136.569C147.725 136.776 147.716 136.992 147.569 137.119C147.45 137.223 147.222 137.272 146.938 137.102C146.688 136.952 146.579 136.731 146.611 136.445C146.636 136.228 146.747 135.988 146.909 135.763Z" fill="#111111"/>
</g>
<g clip-path="url(#clip5_14_1331)">
<path d="M185.535 40.1048L175.504 54.5232L186.943 66.5264C188.165 65.6408 189.269 64.6378 190.23 63.5435C196.709 56.1548 195.392 46.0038 187.313 41.0566C186.745 40.7086 186.15 40.392 185.535 40.1048Z" fill="white"/>
<path d="M186.947 66.5863C186.961 66.5856 186.973 66.5812 186.983 66.5737C188.206 65.6878 189.316 64.6811 190.281 63.5816C191.946 61.6826 193.13 59.5773 193.799 57.3242C194.446 55.1489 194.582 52.9488 194.205 50.7852C193.504 46.7574 191.069 43.2847 187.349 41.0068C186.793 40.6659 186.192 40.3445 185.564 40.0514C185.549 40.0447 185.533 40.0431 185.517 40.0469C185.502 40.0507 185.489 40.0596 185.48 40.072L175.449 54.4904C175.441 54.5013 175.438 54.5143 175.439 54.5273C175.44 54.5403 175.446 54.5526 175.455 54.5625L186.894 66.5657C186.901 66.5727 186.909 66.5782 186.918 66.5817C186.927 66.5853 186.937 66.5869 186.947 66.5863ZM185.559 40.1828C186.163 40.4671 186.741 40.7777 187.278 41.1064C190.967 43.3653 193.381 46.8088 194.077 50.8026C194.451 52.9493 194.315 55.1323 193.674 57.2912C193.009 59.5285 191.833 61.6193 190.179 63.5055C189.233 64.5837 188.147 65.5721 186.95 66.4441L175.585 54.5182L185.559 40.1828Z" fill="#111111"/>
<path d="M175.504 54.5232L176.627 56.5041L188.066 68.5074L186.943 66.5264L175.504 54.5232Z" fill="#111111"/>
<path d="M188.071 68.5672C188.082 68.5667 188.092 68.5636 188.101 68.5584C188.11 68.5531 188.118 68.5459 188.123 68.5372C188.128 68.5286 188.131 68.5188 188.131 68.5089C188.131 68.4989 188.129 68.4891 188.124 68.4802L187 66.4993C186.998 66.495 186.995 66.4909 186.991 66.4873L175.552 54.484C175.542 54.473 175.527 54.4658 175.511 54.4638C175.496 54.4619 175.48 54.4653 175.467 54.4735C175.454 54.4817 175.444 54.494 175.44 54.5082C175.437 54.5224 175.439 54.5374 175.446 54.5505L176.569 56.5314C176.572 56.5357 176.575 56.5397 176.578 56.5434L188.017 68.5466C188.024 68.5536 188.032 68.5591 188.042 68.5626C188.051 68.5662 188.061 68.5678 188.071 68.5672ZM186.889 66.5602L187.759 68.0949L176.681 56.4704L175.811 54.9357L186.889 66.5602Z" fill="#111111"/>
<path d="M186.943 66.5264L188.066 68.5074C189.289 67.6218 190.393 66.6188 191.353 65.5244C195.978 60.2498 196.631 53.5676 193.687 48.3758L192.563 46.3948C195.507 51.5867 194.855 58.2689 190.23 63.5435C189.269 64.6378 188.165 65.6408 186.943 66.5264Z" fill="#3658C1"/>
<path d="M188.071 68.5672C188.084 68.5665 188.096 68.5622 188.107 68.5547C189.33 67.6687 190.439 66.662 191.404 65.5625C193.646 63.006 195.036 60.0198 195.423 56.9267C195.8 53.9167 195.22 50.9504 193.744 48.3485L192.621 46.3676C192.617 46.3606 192.612 46.3544 192.605 46.3492C192.598 46.3441 192.591 46.3402 192.583 46.3378C192.574 46.3354 192.566 46.3344 192.557 46.335C192.549 46.3357 192.541 46.3378 192.533 46.3414C192.525 46.345 192.519 46.3499 192.513 46.3559C192.508 46.3619 192.504 46.3688 192.501 46.3763C192.499 46.3838 192.498 46.3917 192.498 46.3995C192.499 46.4074 192.502 46.415 192.506 46.4221C193.969 49.0024 194.545 51.9445 194.17 54.9306C193.786 58.0013 192.405 60.9664 190.179 63.5055C189.22 64.5982 188.117 65.5987 186.902 66.4791C186.89 66.4877 186.882 66.4998 186.879 66.5134C186.876 66.527 186.878 66.5412 186.885 66.5536L188.008 68.5346C188.014 68.545 188.023 68.5536 188.034 68.5594C188.045 68.5652 188.058 68.568 188.071 68.5672ZM193.435 48.0614L193.629 48.403C195.092 50.9833 195.668 53.9255 195.294 56.9115C194.909 59.9822 193.529 62.9474 191.302 65.4865C190.36 66.5606 189.278 67.5457 188.087 68.4153L187.025 66.5433C188.232 65.6648 189.327 64.6685 190.281 63.5816C192.522 61.0251 193.912 58.0389 194.3 54.9458C194.597 52.5713 194.299 50.2241 193.435 48.0614Z" fill="#111111"/>
</g>
<g clip-path="url(#clip6_14_1331)">
<path d="M46.5158 51.8379L57.7106 56.6324L51.5564 58.386C50.5055 58.6855 49.3199 58.179 48.9101 57.2523L46.5158 51.8379Z" fill="#B0C3FF"/>
<path d="M50.936 58.548C50.041 58.548 49.1739 58.0545 48.8316 57.2805L46.4374 51.8662C46.4311 51.852 46.4297 51.8363 46.4333 51.8214C46.437 51.8064 46.4456 51.7927 46.458 51.7822C46.4704 51.7717 46.486 51.7648 46.5028 51.7625C46.5195 51.7601 46.5367 51.7623 46.5521 51.7689L57.7468 56.5635C57.7622 56.5701 57.775 56.5807 57.7836 56.5939C57.7922 56.6072 57.7962 56.6224 57.795 56.6378C57.7938 56.6531 57.7876 56.6677 57.777 56.6798C57.7665 56.6918 57.7522 56.7007 57.736 56.7053L51.5818 58.4589C51.3729 58.5182 51.1551 58.5482 50.936 58.548ZM46.6742 51.9902L48.9886 57.224C49.3814 58.1122 50.5218 58.6012 51.5309 58.3133L57.4799 56.6182L46.6742 51.9902Z" fill="#111111"/>
<path d="M65.017 80.7816L42.459 87.2093C40.8048 87.6806 38.9419 86.8824 38.2981 85.4267L27.1921 60.3122C26.8681 59.5796 26.9146 58.8199 27.2516 58.1859L26.4457 59.7021C26.1088 60.3361 26.0622 61.0957 26.3862 61.8283L37.4922 86.9428C38.136 88.3985 39.9989 89.1967 41.6531 88.7253L64.2111 82.2977C65.0328 82.0636 65.6485 81.5602 65.9812 80.9344L66.7871 79.4182C66.4544 80.044 65.8387 80.5475 65.017 80.7816Z" fill="url(#paint3_linear_14_1331)"/>
<path d="M40.6771 88.9365C39.2893 88.9365 37.9445 88.1713 37.4137 86.9711L26.3078 61.8567C25.9854 61.1275 26.0073 60.3506 26.3695 59.6691L27.1754 58.153C27.1801 58.1438 27.1868 58.1356 27.1951 58.1287C27.2033 58.1219 27.213 58.1166 27.2236 58.1132C27.2341 58.1097 27.2453 58.1082 27.2565 58.1087C27.2677 58.1093 27.2787 58.1118 27.2888 58.1162C27.2989 58.1205 27.3079 58.1267 27.3154 58.1343C27.3228 58.1418 27.3285 58.1506 27.3322 58.1602C27.3358 58.1698 27.3373 58.1799 27.3366 58.19C27.3358 58.2001 27.3329 58.21 27.3279 58.2191C26.9863 58.8617 26.966 59.5949 27.2706 60.2839L38.3766 85.3983C39.0033 86.8154 40.8231 87.5952 42.4335 87.1364L64.9916 80.7089C65.7618 80.4894 66.3714 80.0208 66.7087 79.3894L66.7109 79.3853C66.7156 79.3761 66.7223 79.3679 66.7305 79.361C66.7388 79.3542 66.7485 79.3489 66.759 79.3454C66.7696 79.342 66.7808 79.3405 66.7919 79.341C66.8031 79.3415 66.8141 79.3441 66.8242 79.3484C66.8343 79.3528 66.8434 79.359 66.8508 79.3665C66.8583 79.3741 66.864 79.3829 66.8676 79.3925C66.8713 79.4021 66.8727 79.4122 66.872 79.4223C66.8713 79.4324 66.8683 79.4423 66.8633 79.4513L66.0574 80.9674C65.7002 81.6394 65.0535 82.1378 64.2366 82.3706L41.6784 88.7982C41.3544 88.8902 41.0167 88.9368 40.6771 88.9365ZM26.9031 59.0183L26.522 59.7352C26.1805 60.3778 26.1602 61.111 26.4648 61.8L37.5708 86.9144C38.1975 88.3317 40.0174 89.1116 41.6277 88.6526L64.1857 82.225C64.9577 82.005 65.5683 81.5349 65.905 80.9014L66.2865 80.1837C65.9474 80.4873 65.5246 80.7171 65.0425 80.8545L42.4844 87.2821C40.7916 87.764 38.8784 86.9447 38.2196 85.4549L27.1137 60.3405C26.9218 59.9066 26.8519 59.4558 26.9031 59.0183Z" fill="#111111"/>
<path d="M46.5158 51.8379L48.9101 57.2523C49.3199 58.1791 50.5055 58.6855 51.5564 58.386L57.7106 56.6324L66.8466 77.292C67.4903 78.7478 66.6711 80.3102 65.017 80.7816L42.4589 87.2092C40.8047 87.6805 38.9418 86.8823 38.298 85.4266L27.1921 60.3122C26.5483 58.8564 27.3674 57.2941 29.0216 56.8228L46.5158 51.8379Z" fill="white"/>
<path d="M41.4829 87.4203C40.095 87.4203 38.7502 86.6551 38.2196 85.4549L27.1136 60.3405C26.7932 59.6161 26.813 58.8434 27.1692 58.1646C27.5251 57.4867 28.1738 56.9842 28.9961 56.7499L46.4905 51.7651C46.5108 51.7593 46.5328 51.7607 46.5521 51.769C46.5713 51.7772 46.5864 51.7917 46.5944 51.8096L48.9887 57.224C49.3814 58.1122 50.5219 58.6012 51.531 58.3133L57.6851 56.5597C57.7274 56.5477 57.7727 56.5672 57.7891 56.6042L66.9251 77.2639C67.2454 77.9882 67.2257 78.7609 66.8695 79.4396C66.5136 80.1177 65.8648 80.6202 65.0425 80.8545L42.4843 87.2821C42.1603 87.374 41.8226 87.4207 41.4829 87.4203ZM46.4665 51.932L29.047 56.8956C28.2701 57.1169 27.6575 57.5908 27.322 58.23C26.9862 58.8699 26.968 59.5993 27.2706 60.2838L38.3766 85.3982C39.0033 86.8153 40.8232 87.5952 42.4335 87.1363L64.9917 80.7088C65.7686 80.4874 66.3812 80.0134 66.7167 79.3742C67.0526 78.7342 67.0708 78.0049 66.7681 77.3205L57.6612 56.7266L51.5819 58.4588C50.4902 58.7697 49.2565 58.2413 48.8317 57.2805L46.4665 51.932Z" fill="#111111"/>
<path d="M51.8947 80.9722C51.7567 80.9722 51.6084 80.9446 51.4509 80.8893C49.5133 80.209 46.4186 75.4458 44.6623 71.4228C42.5857 66.6659 41.6587 62.1388 42.458 60.6584C42.6034 60.3891 42.8039 60.2185 43.0539 60.1517C45.1816 59.5838 48.7462 65.5161 50.6235 69.6428C51.2768 71.0788 52.2149 73.6189 52.7307 75.8019C53.4249 78.7396 53.2649 80.4545 52.2552 80.8991C52.1447 80.948 52.0242 80.9722 51.8947 80.9722ZM43.1019 60.2982C42.8993 60.3524 42.7338 60.4961 42.61 60.7253C41.8295 62.1707 42.7588 66.6461 44.8196 71.3668C46.8182 75.9451 49.8204 80.1531 51.5122 80.747C51.7717 80.838 51.9969 80.8432 52.1813 80.762C53.099 80.3579 53.2318 78.6538 52.5654 75.8337C52.0518 73.6599 51.1176 71.1308 50.4671 69.7008C48.2312 64.7859 44.8898 59.8186 43.1019 60.2982Z" fill="#111111"/>
<path d="M40.5375 78.8548C40.2287 78.8548 39.9557 78.7882 39.7335 78.6368C39.4911 78.4717 39.3477 78.2151 39.3073 77.8741C39.1122 76.2295 41.3178 72.6743 44.7956 69.0274C48.4225 65.2243 52.6859 62.2942 54.7128 62.2117C55.0878 62.1966 55.3814 62.279 55.5847 62.4571C56.3046 63.0871 56.0285 64.5091 54.7864 66.5694C53.7602 68.2714 52.0846 70.3812 50.1891 72.3577C48.9715 73.6275 46.8274 75.538 44.7822 76.944C43.4257 77.8765 41.7206 78.8547 40.5375 78.8548ZM54.7991 62.3626C54.7734 62.3626 54.7472 62.3631 54.7204 62.3642C52.7351 62.4449 48.5234 65.3523 44.9237 69.1269C41.5284 72.6874 39.2879 76.2776 39.4753 77.8578C39.5106 78.1551 39.6317 78.3762 39.8353 78.5149C40.0232 78.6429 40.2627 78.7065 40.5509 78.7065C41.4635 78.7067 42.8662 78.0693 44.68 76.8224C46.7155 75.423 48.8495 73.5215 50.0614 72.2577C53.798 68.3611 56.8547 63.7811 55.4671 62.5665C55.3123 62.431 55.0877 62.3626 54.7991 62.3626Z" fill="#111111"/>
<path d="M55.4319 74.0528L55.3557 74.0527C52.9159 74.0461 49.7171 73.7183 46.7991 73.1759C41.6755 72.2236 34.775 69.981 35.1453 68.2473C35.1965 68.008 35.3686 67.7982 35.6571 67.6237C37.213 66.6828 42.3515 66.7674 48.1531 67.8295C54.116 68.9213 58.9769 70.6851 59.9738 72.1187C60.1458 72.3661 60.2016 72.6025 60.1399 72.8215C59.8539 73.836 57.4399 74.0528 55.4319 74.0528ZM39.8223 67.1192C37.9 67.1192 36.4499 67.3278 35.7512 67.7505C35.5016 67.9015 35.3535 68.0783 35.3113 68.2762C35.1605 68.9822 36.4855 69.9095 39.0422 70.8868C41.2131 71.7168 44.1985 72.5366 46.8333 73.0263C52.833 74.1415 59.5458 74.3101 59.9762 72.7836C60.0261 72.6068 59.9771 72.4103 59.8306 72.1998C58.872 70.821 53.9467 69.046 48.1195 67.9791C45.0042 67.4087 42.0859 67.1192 39.8223 67.1192Z" fill="#111111"/>
<path d="M37.3534 69.7942C37.223 69.8314 37.1155 69.8986 37.0368 69.9843C36.987 70.0386 36.9486 70.1006 36.9234 70.1673C36.8743 70.2974 36.8756 70.4449 36.9389 70.5881C37.0849 70.9183 37.5083 71.0997 37.8835 70.9928C38.0244 70.9526 38.1386 70.8779 38.2188 70.7829C38.2662 70.7268 38.3019 70.6633 38.324 70.5956C38.3646 70.4718 38.36 70.3339 38.3009 70.2001C38.1539 69.868 37.7306 69.6868 37.3534 69.7942Z" fill="#3658C1"/>
<path d="M37.6626 71.0996C37.3214 71.0996 36.9908 70.9115 36.8603 70.6164C36.7922 70.4623 36.7861 70.2941 36.8433 70.1427C36.8717 70.0671 36.9152 69.997 36.9717 69.9356C37.0634 69.8357 37.1865 69.7618 37.3279 69.7214V69.7214C37.7451 69.6024 38.2167 69.8045 38.3792 70.1717C38.4437 70.3177 38.4526 70.4718 38.4048 70.6172C38.3799 70.6938 38.3396 70.7656 38.2859 70.829C38.192 70.9403 38.0616 71.022 37.9087 71.0655C37.8291 71.0882 37.7461 71.0997 37.6626 71.0996ZM37.3788 69.867C37.2685 69.8986 37.1727 69.9559 37.1018 70.0331C37.0585 70.0801 37.0252 70.134 37.0034 70.1919C36.9586 70.3106 36.9635 70.4379 37.0174 70.5598C37.1472 70.8535 37.5243 71.015 37.8579 70.92C37.9774 70.886 38.0789 70.8226 38.1514 70.7367C38.1928 70.6875 38.2236 70.6329 38.2427 70.5741C38.2796 70.4617 38.2725 70.3422 38.2221 70.2285C38.0919 69.9337 37.7135 69.7716 37.3788 69.867Z" fill="#111111"/>
<path d="M52.7096 77.0223C52.3344 77.1292 52.1484 77.4843 52.2943 77.8144C52.3984 78.0497 52.6413 78.2092 52.9074 78.2442C53.0187 78.259 53.1322 78.2511 53.2395 78.2209C53.6148 78.114 53.8009 77.7591 53.6541 77.427C53.5468 77.1846 53.2899 77.0225 53.0125 76.9958C52.9106 76.9857 52.8074 76.9948 52.7096 77.0223Z" fill="#3658C1"/>
<path d="M53.0174 78.3278C52.9768 78.3278 52.9361 78.3251 52.8954 78.3198C52.5884 78.2795 52.3282 78.0966 52.2159 77.8428C52.1365 77.6631 52.1415 77.4709 52.2304 77.3017C52.319 77.1328 52.4802 77.0077 52.6842 76.9496C52.7932 76.9188 52.908 76.9086 53.0216 76.9199C53.3385 76.9504 53.6176 77.1384 53.7327 77.3987C53.8127 77.5795 53.8077 77.7724 53.7187 77.9418C53.6301 78.1106 53.469 78.2356 53.2651 78.2937C53.2341 78.3025 53.2025 78.3095 53.1705 78.3148C53.12 78.3235 53.0688 78.3278 53.0174 78.3278ZM52.735 77.0952C52.5763 77.1404 52.4514 77.2369 52.383 77.3671C52.3146 77.4975 52.311 77.6462 52.3729 77.7861C52.4628 77.9895 52.6724 78.1361 52.9197 78.1687C53.0183 78.1817 53.1189 78.1746 53.2141 78.148C53.3727 78.1029 53.4976 78.0065 53.5659 77.8764C53.6345 77.7457 53.638 77.5962 53.5756 77.4553C53.4834 77.2468 53.2588 77.0962 53.0035 77.0716C52.9286 77.0642 52.8529 77.0685 52.7796 77.0842C52.765 77.0875 52.75 77.0908 52.735 77.0952Z" fill="#111111"/>
<path d="M52.299 62.3765C51.9239 62.4834 51.7378 62.8384 51.8846 63.1704C51.8879 63.1776 51.8914 63.1847 51.8948 63.1919C51.9284 63.2608 51.9743 63.3227 52.0294 63.3765C52.227 63.5697 52.542 63.6568 52.829 63.5751C53.2063 63.4676 53.3924 63.1126 53.2464 62.7824L53.2444 62.7782C53.2134 62.7098 53.1703 62.6465 53.1167 62.5907C52.9198 62.3857 52.5952 62.2921 52.299 62.3765Z" fill="#3658C1"/>
<path d="M52.6053 63.6823C52.4854 63.6818 52.3668 63.659 52.257 63.6153C52.1472 63.5716 52.0485 63.508 51.9672 63.4283C51.905 63.3677 51.8544 63.2982 51.8174 63.2227L51.8061 63.1988C51.7262 63.018 51.7311 62.825 51.8202 62.6556C51.9087 62.4869 52.0698 62.3619 52.2737 62.3038C52.5925 62.2131 52.9571 62.3082 53.1806 62.5408C53.2403 62.6028 53.2883 62.6733 53.3227 62.7494C53.4044 62.9337 53.3992 63.1257 53.3106 63.2946C53.2216 63.4639 53.0597 63.5893 52.8545 63.6479C52.7739 63.6707 52.6899 63.6823 52.6053 63.6823ZM52.3245 62.4494C52.166 62.4945 52.0411 62.5909 51.9729 62.7209C51.9043 62.8517 51.9008 63.0012 51.9632 63.1422L51.9693 63.1554C51.9992 63.2176 52.0404 63.2749 52.0914 63.3248C52.2717 63.5009 52.5579 63.5724 52.8036 63.5022C52.9634 63.4567 53.0892 63.3598 53.1577 63.2292C53.226 63.0991 53.2297 62.9505 53.1679 62.8108C53.1402 62.7488 53.1013 62.6914 53.0528 62.6408C52.8729 62.4534 52.5802 62.3764 52.3245 62.4494Z" fill="#111111"/>
<path d="M46.9519 68.9737C45.9736 69.2525 45.4899 70.175 45.8707 71.036C46.2507 71.8952 47.3514 72.3682 48.3297 72.0894C49.306 71.8112 49.7908 70.8864 49.4109 70.0273C49.0301 69.1663 47.9281 68.6956 46.9519 68.9737Z" fill="#3658C1"/>
<path d="M47.7533 72.2455C46.9193 72.2455 46.1111 71.7856 45.7922 71.0643C45.5991 70.6277 45.6109 70.1622 45.8256 69.7532C46.0399 69.3448 46.4309 69.0421 46.9266 68.9009C47.9438 68.6112 49.0935 69.1037 49.4895 69.999C49.6821 70.4347 49.67 70.9001 49.4551 71.3095C49.2404 71.7185 48.8499 72.0213 48.3553 72.1623C48.1605 72.2176 47.9575 72.2456 47.7533 72.2455ZM47.5303 68.9701C47.3453 68.9701 47.1591 68.9947 46.9774 69.0466C46.5271 69.1748 46.1723 69.4489 45.9783 69.8186C45.7841 70.1887 45.7737 70.611 45.9492 71.0076C46.313 71.8303 47.3695 72.2832 48.3044 72.0166C48.7536 71.8886 49.108 71.6142 49.3023 71.2441C49.4968 70.8735 49.5075 70.4513 49.3324 70.0556C49.0393 69.3928 48.2966 68.9701 47.5303 68.9701Z" fill="#111111"/>
</g>
<defs>
<linearGradient id="paint0_linear_14_1331" x1="183.62" y1="69.3283" x2="154.424" y2="68.3351" gradientUnits="userSpaceOnUse">
<stop stop-color="#3658C1"/>
<stop offset="0.111" stop-color="#3454B8"/>
<stop offset="0.291" stop-color="#2F4BA0"/>
<stop offset="0.517" stop-color="#273B7A"/>
<stop offset="0.778" stop-color="#1C2644"/>
<stop offset="1" stop-color="#111111"/>
</linearGradient>
<linearGradient id="paint1_linear_14_1331" x1="125.242" y1="44.8708" x2="126.094" y2="118.843" gradientUnits="userSpaceOnUse">
<stop stop-color="#B0C3FF"/>
<stop offset="0.265" stop-color="#6581D9"/>
<stop offset="0.447" stop-color="#3658C1"/>
<stop offset="0.489" stop-color="#3250AE"/>
<stop offset="0.618" stop-color="#263A76"/>
<stop offset="0.739" stop-color="#1D284B"/>
<stop offset="0.847" stop-color="#161C2B"/>
<stop offset="0.937" stop-color="#121418"/>
<stop offset="1" stop-color="#111111"/>
</linearGradient>
<linearGradient id="paint2_linear_14_1331" x1="14.7643" y1="129.787" x2="144.012" y2="117.759" gradientUnits="userSpaceOnUse">
<stop stop-color="#B0C3FF"/>
<stop offset="0.035" stop-color="#A7BBFA"/>
<stop offset="0.354" stop-color="#5674D1"/>
<stop offset="0.5" stop-color="#3658C1"/>
<stop offset="0.605" stop-color="#2D4797"/>
<stop offset="0.795" stop-color="#1E2A4F"/>
<stop offset="0.931" stop-color="#151822"/>
<stop offset="1" stop-color="#111111"/>
</linearGradient>
<linearGradient id="paint3_linear_14_1331" x1="39.4767" y1="53.9375" x2="50.6415" y2="86.0642" gradientUnits="userSpaceOnUse">
<stop stop-color="#3658C1"/>
<stop offset="0.15" stop-color="#3556BD"/>
<stop offset="0.301" stop-color="#3351B1"/>
<stop offset="0.453" stop-color="#2E499D"/>
<stop offset="0.605" stop-color="#283E80"/>
<stop offset="0.757" stop-color="#212F5C"/>
<stop offset="0.908" stop-color="#171D30"/>
<stop offset="1" stop-color="#111111"/>
</linearGradient>
<clipPath id="clip0_14_1331">
<rect width="31.7572" height="34.6348" fill="white" transform="matrix(-0.998198 0.0600398 0.0861877 0.996449 181.324 37.2924)"/>
</clipPath>
<clipPath id="clip1_14_1331">
<rect width="35.92" height="32.5501" fill="white" transform="matrix(-0.915926 -0.40206 -0.489874 0.873068 181.039 134.384)"/>
</clipPath>
<clipPath id="clip2_14_1331">
<rect width="158.471" height="121.238" fill="white" transform="matrix(0.99794 -0.0642547 0.0926818 0.995894 5.52011 31.3395)"/>
</clipPath>
<clipPath id="clip3_14_1331">
<rect width="91.08" height="67.0956" fill="white" transform="translate(66.3228 41.9628)"/>
</clipPath>
<clipPath id="clip4_14_1331">
<rect width="40.4943" height="28.7715" fill="white" transform="matrix(-0.997021 0.0772672 0.110919 0.994106 168.832 114.474)"/>
</clipPath>
<clipPath id="clip5_14_1331">
<rect width="20.033" height="28.6231" fill="white" transform="matrix(-0.998473 0.0552391 0.0789787 0.997018 194.343 39.5574)"/>
</clipPath>
<clipPath id="clip6_14_1331">
<rect width="41.0688" height="37.1756" fill="white" transform="translate(26.082 51.7616)"/>
</clipPath>
</defs>
</svg>
