<svg xmlns="http://www.w3.org/2000/svg" xmlns:xlink="http://www.w3.org/1999/xlink" viewBox="0,0,256,256" width="24px" height="24px" fill-rule="nonzero"><g fill="#d101f3" fill-rule="nonzero" stroke="none" stroke-width="1" stroke-linecap="butt" stroke-linejoin="miter" stroke-miterlimit="10" stroke-dasharray="" stroke-dashoffset="0" font-family="none" font-weight="none" font-size="none" text-anchor="none" style="mix-blend-mode: normal"><g transform="scale(10.66667,10.66667)"><path d="M5,4c-1.1,0 -2,0.9 -2,2v8c0,1.1 0.9,2 2,2h14c1.1,0 2,-0.9 2,-2v-8c0,-1.1 -0.9,-2 -2,-2zM8,7h8c0.552,0 1,0.448 1,1c0,0.552 -0.448,1 -1,1h-8c-0.552,0 -1,-0.448 -1,-1c0,-0.552 0.448,-1 1,-1zM8,11h5c0.552,0 1,0.448 1,1c0,0.552 -0.448,1 -1,1h-5c-0.552,0 -1,-0.448 -1,-1c0,-0.552 0.448,-1 1,-1zM3,18c-0.552,0 -1,0.448 -1,1c0,0.552 0.448,1 1,1h18c0.552,0 1,-0.448 1,-1c0,-0.552 -0.448,-1 -1,-1z"></path></g></g></svg>