<svg xmlns="http://www.w3.org/2000/svg" xmlns:xlink="http://www.w3.org/1999/xlink" viewBox="0,0,256,256" width="24px" height="24px" fill-rule="nonzero"><g fill="#d101f3" fill-rule="nonzero" stroke="none" stroke-width="1" stroke-linecap="butt" stroke-linejoin="miter" stroke-miterlimit="10" stroke-dasharray="" stroke-dashoffset="0" font-family="none" font-weight="none" font-size="none" text-anchor="none" style="mix-blend-mode: normal"><g transform="scale(10.66667,10.66667)"><path d="M9.5,4c-0.6,0 -1.19961,0.30078 -1.59961,0.80078l-1.59961,2.19922h2.5l0.79883,-1h3.40039v1h2v-1c0,-1.1 -0.9,-2 -2,-2zM18,4c-0.552,0 -1,0.448 -1,1v1c0,0.552 0.448,1 1,1h2.5c0.8,0 1.5,-0.7 1.5,-1.5c0,-0.8 -0.7,-1.5 -1.5,-1.5zM4,8c-1.1,0 -2,0.9 -2,2v8c0,1.1 0.9,2 2,2h11c1.1,0 2,-0.9 2,-2v-2l4.05664,2.91016c0.416,0.249 0.94336,-0.0492 0.94336,-0.5332v-8.75391c0,-0.484 -0.52736,-0.7822 -0.94336,-0.5332l-4.05664,2.91016v-2c0,-1.1 -0.9,-2 -2,-2zM5,10h4c0.552,0 1,0.448 1,1v2c0,0.552 -0.448,1 -1,1h-4c-0.552,0 -1,-0.448 -1,-1v-2c0,-0.552 0.448,-1 1,-1z"></path></g></g></svg>